<svg xmlns="http://www.w3.org/2000/svg" viewBox="0 0 269.7 288"><defs><style>.cls-1{fill:#fff;}</style></defs><title>jlte.ch-logo-white</title><g id="Layer_2" data-name="Layer 2"><g id="Layer_1-2" data-name="Layer 1"><g id="Layer_1-2-2" data-name="Layer 1-2"><g id="JLTech"><g id="JL"><path id="path35" class="cls-1" d="M139.17,0,103.7,199.52c-33.82,0-44.48-3.71-46-18.84,0,0-22.68,8.46-34.13,25.64,44.65,20.69,89.51,21.62,89.51,21.62l26.18-31.88h-.06l26.18,31.88s44.86-.93,89.5-21.62c-11.43-17.18-34.12-25.64-34.12-25.64-1.55,15.14-12.2,18.84-45.79,18.87L139.17,0"/></g><g id="E"><path id="path24" class="cls-1" d="M70.27,250.18h27a10,10,0,0,0,7.33-7.27H62.94a10,10,0,0,0,7.33,7.27"/><path id="path26" class="cls-1" d="M70.27,264.51h27a10,10,0,0,0,7.33-7.26H62.94a10,10,0,0,0,7.33,7.26"/><path id="path28" class="cls-1" d="M70.27,279.22h27A10,10,0,0,0,104.6,272H62.94a10,10,0,0,0,7.33,7.26"/></g><g id="T"><path id="path32" class="cls-1" d="M0,243a10.09,10.09,0,0,0,7.32,7.21H18.69l.58.23v28.69h7.1V250.45l.65-.23H38.39A10.22,10.22,0,0,0,45.68,243v-.07H0V243"/></g><path id="C" class="cls-1" d="M181.46,272.09V250.25h24.06a10,10,0,0,0,7.33-7.26H174.41v36.24h32.38a10,10,0,0,0,6.18-7.14Z"/><polygon id="H" class="cls-1" points="262.68 242.99 262.68 257.33 237.1 257.31 237.1 242.99 230.08 242.99 230.08 257.3 230.08 262.65 230.08 264.65 230.08 279.21 237.1 279.21 237.1 264.63 262.68 264.63 262.68 279.21 269.7 279.21 269.7 262.61 269.7 257.34 269.7 242.99 262.68 242.99"/><path id="period" class="cls-1" d="M165.35,287l-26.18-32.1h.06L113.05,287s9.09,1,26.15,1C155.23,288,165.35,287,165.35,287Z"/></g></g></g></g></svg>